<?xml version="1.0" encoding="UTF-8" standalone="no"?>
<!-- Created with Inkscape (http://www.inkscape.org/) -->

<svg
   xmlns:dc="http://purl.org/dc/elements/1.1/"
   xmlns:cc="http://creativecommons.org/ns#"
   xmlns:rdf="http://www.w3.org/1999/02/22-rdf-syntax-ns#"
   xmlns:svg="http://www.w3.org/2000/svg"
   xmlns="http://www.w3.org/2000/svg"
   xmlns:sodipodi="http://sodipodi.sourceforge.net/DTD/sodipodi-0.dtd"
   xmlns:inkscape="http://www.inkscape.org/namespaces/inkscape"
   width="512"
   height="512"
   id="svg2"
   version="1.1"
   inkscape:version="0.48.4 r9939"
   sodipodi:docname="Novo documento 1">
  <defs
     id="defs4" />
  <sodipodi:namedview
     id="base"
     pagecolor="#ffffff"
     bordercolor="#666666"
     borderopacity="1.0"
     inkscape:pageopacity="0.0"
     inkscape:pageshadow="2"
     inkscape:zoom="0.3947391"
     inkscape:cx="210.05729"
     inkscape:cy="484.65726"
     inkscape:document-units="px"
     inkscape:current-layer="layer1"
     showgrid="false"
     inkscape:window-width="1366"
     inkscape:window-height="692"
     inkscape:window-x="0"
     inkscape:window-y="24"
     inkscape:window-maximized="1" />
  <metadata
     id="metadata7">
    <rdf:RDF>
      <cc:Work
         rdf:about="">
        <dc:format>image/svg+xml</dc:format>
        <dc:type
           rdf:resource="http://purl.org/dc/dcmitype/StillImage" />
        <dc:title></dc:title>
      </cc:Work>
    </rdf:RDF>
  </metadata>
  <g
     inkscape:label="Camada 1"
     inkscape:groupmode="layer"
     id="layer1"
     transform="translate(0,-540.36218)">
    <path
       style="fill:#f19a0e;fill-opacity:1"
       d="m 170.65808,1049.7159 c 0.64057,-2.2277 18.18006,-66.93491 38.97663,-143.79366 20.7966,-76.85875 38.25167,-141.33807 38.78907,-143.28739 0.53742,-1.94932 0.18733,-3.53542 -0.77792,-3.52467 -0.96528,0.0101 -31.82814,5.37779 -68.58415,11.92678 -36.75602,6.54899 -66.93352,11.78057 -67.06112,11.62574 -0.18024,-0.21871 40.74345,-154.11164 61.06724,-229.64262 l 3.40594,-12.6579 64.42076,0 64.42076,0 -24.10882,72.26871 c -13.25987,39.74779 -23.79348,72.58409 -23.40802,72.96958 0.38546,0.38549 32.76507,-4.6541 71.95467,-11.19906 52.26031,-8.72789 70.97961,-11.18527 70.22505,-9.21878 -1.52635,3.97787 -226.35532,384.19257 -228.58027,386.55857 -1.21173,1.2886 -1.48083,0.5519 -0.73982,-2.0253 z"
       id="path3014"
       inkscape:connector-curvature="0" />
  </g>
</svg>
